<svg id="Layer_1" enable-background="new 0 0 512 512" viewBox="0 0 512 512" xmlns="http://www.w3.org/2000/svg"><path d="m467.085 154.1h-43.538v-28.488c0-21.886-17.805-39.691-39.691-39.691h-179.398l-14.935-28.45c-7.103-13.557-20.478-21.651-35.776-21.651h-112.594c-22.416 0-40.653 18.224-40.653 40.624v335.546c0 35.394 28.795 64.19 64.189 64.19v-.05c.166.005.329.022.497.021 35.105-.282 63.665-29.064 63.665-64.161v-213.475c0-10.732 8.731-19.463 19.464-19.463h318.77c10.732 0 19.463 8.731 19.463 19.463v213.475c0 21.621-17.589 39.21-39.209 39.21h-307.568c-6.89 0-12.476 5.586-12.476 12.476 0 6.891 5.586 12.476 12.476 12.476h307.568c35.378 0 64.161-28.783 64.161-64.162v-213.475c0-24.49-19.924-44.415-44.415-44.415zm-363.186 44.415v213.475c0 21.448-17.456 39.038-38.914 39.211-.14.001-.276.018-.415.024-21.581-.065-39.118-17.639-39.118-39.235v-335.546c0-8.642 7.043-15.672 15.701-15.672h112.594c6.021 0 10.877 2.94 13.679 8.288l18.445 35.136c2.155 4.105 6.41 6.677 11.046 6.677h186.94c8.127 0 14.739 6.612 14.739 14.739v28.488h-250.28c-24.492 0-44.417 19.925-44.417 44.415zm216.277 41.529v136.423l49.144-49.145c4.872-4.871 12.771-4.871 17.643 0 4.872 4.872 4.872 12.771 0 17.644l-70.442 70.442c-2.34 2.339-5.513 3.654-8.822 3.654s-6.482-1.315-8.822-3.654l-70.442-70.442c-4.872-4.873-4.872-12.772 0-17.644 4.872-4.871 12.772-4.87 17.643 0l49.144 49.145v-136.423c0-6.891 5.586-12.476 12.476-12.476 6.892 0 12.478 5.586 12.478 12.476z"/></svg>
