<svg enable-background="new 0 0 512 512" height="300" viewBox="0 0 512 512" width="300" xmlns="http://www.w3.org/2000/svg" version="1.1" xmlns:xlink="http://www.w3.org/1999/xlink" xmlns:svgjs="http://svgjs.dev/svgjs"><g width="100%" height="100%" transform="matrix(1,0,0,1,0,0)"><g id="_x32_4_Opportunity"><g><g><path d="m504.754 210.772c-.01 0-.021 0-.031 0-2.92 0-5.296 2.355-5.311 5.28l-.109 17.796c-.016 2.931 2.344 5.327 5.28 5.343h.031c2.92 0 5.296-2.355 5.311-5.28l.109-17.796c.016-2.931-2.344-5.327-5.28-5.343z" fill="#ffffff" fill-opacity="1" data-original-color="#000000ff" stroke="none" stroke-opacity="1"/><path d="m504.826 200.044h.053c2.921 0 5.311-2.337 5.311-5.259l.744-123.118c0-3.293-3.24-6.055-6.639-5.205l-499.271 130.927c-5.152 1.381-5.311 8.657-.266 10.198l179.685 56.247 35.427 177.613c1.116 5.471 8.87 5.736 10.304.319l41.376-152.437 230.249 90.772c3.559 1.381 7.277-1.222 7.277-4.886l.584-94.809c0-2.974-2.337-5.364-5.258-5.364-.053 0-.053 0-.053 0-2.921 0-5.311 2.337-5.311 5.258l-.531 87.054-220.529-86.948 222.281-196.947-.69 111.221c-.001 2.974 2.336 5.364 5.257 5.364zm-316.4 53.858-162.847-50.936 444.883-116.639z" fill="#ffffff" fill-opacity="1" data-original-color="#000000ff" stroke="none" stroke-opacity="1"/></g><path d="m325.294 322.252c-2.029-1.691-5.174-1.888-7.489.637l-63.418 74.785c-1.009 1.009-1.226 4.747 1.169 6.692 2.185 1.821 5.395 1.701 7.489-.585.598-.706-7.209 8.507 63.418-74.837 1.097-1.647 1.012-4.792-1.169-6.692z" fill="#ffffff" fill-opacity="1" data-original-color="#000000ff" stroke="none" stroke-opacity="1"/></g></g></g></svg>